<?xml version="1.0" encoding="UTF-8"?>
<!DOCTYPE svg PUBLIC "-//W3C//DTD SVG 1.1//EN" "http://www.w3.org/Graphics/SVG/1.1/DTD/svg11.dtd">
<svg xmlns="http://www.w3.org/2000/svg" version="1.1" width="270px" height="270px" style="shape-rendering:geometricPrecision; text-rendering:geometricPrecision; image-rendering:optimizeQuality; fill-rule:evenodd; clip-rule:evenodd" xmlns:xlink="http://www.w3.org/1999/xlink">
<g><path style="opacity:0.969" fill="#050505" d="M 111.5,-0.5 C 127.167,-0.5 142.833,-0.5 158.5,-0.5C 217.267,13.2686 254.267,49.2686 269.5,107.5C 269.5,125.167 269.5,142.833 269.5,160.5C 253.299,221.696 213.965,258.029 151.5,269.5C 140.167,269.5 128.833,269.5 117.5,269.5C 53.7807,257.779 14.4474,220.446 -0.5,157.5C -0.5,141.833 -0.5,126.167 -0.5,110.5C 13.614,50.0526 50.9473,13.0526 111.5,-0.5 Z"/></g>
<g><path style="opacity:1" fill="#434bf4" d="M 56.5,81.5 C 80.8333,81.5 105.167,81.5 129.5,81.5C 129.5,87.8333 129.5,94.1667 129.5,100.5C 106.498,100.333 83.4976,100.5 60.5,101C 55.6241,103.092 53.2908,106.758 53.5,112C 53.0123,117.696 55.3457,121.696 60.5,124C 78.8333,124.333 97.1667,124.667 115.5,125C 133.932,131.356 141.432,144.189 138,163.5C 135.111,175.542 127.611,183.042 115.5,186C 88.5021,186.5 61.5021,186.667 34.5,186.5C 34.5,180.167 34.5,173.833 34.5,167.5C 59.8355,167.667 85.1689,167.5 110.5,167C 117.934,163.955 120.434,158.455 118,150.5C 116.437,147.272 113.937,145.105 110.5,144C 92.5,143.667 74.5,143.333 56.5,143C 37.812,136.479 30.312,123.313 34,103.5C 37.7793,92.2228 45.2793,84.8895 56.5,81.5 Z"/></g>
<g><path style="opacity:1" fill="#fafafa" d="M 149.5,82.5 C 156.568,81.1732 163.735,81.1732 171,82.5C 192.833,117 214.667,151.5 236.5,186C 229.5,186.667 222.5,186.667 215.5,186C 193.351,151.52 171.351,117.02 149.5,82.5 Z"/></g>
</svg>
